<svg xmlns="http://www.w3.org/2000/svg" width="100%" height="100%" viewBox="0 0 32 32"><defs><linearGradient id="a" x1="16" y1="32.94" x2="16" y2="7.06" gradientTransform="matrix(1 0 0 -1 0 36)" gradientUnits="userSpaceOnUse"><stop offset="0" stop-color="#b8f081"/><stop offset="1" stop-color="#64f9c8"/></linearGradient></defs><g><path style="fill:none" d="M0 0h32v32H0z"/><path d="M15.19 28.54c-.4-.25-.71-.62-.88-1.06-.17-.44-.19-.93-.07-1.38l3.4-11.66c.15-.45.47-.83.89-1.06.42-.23.91-.28 1.37-.15.23.05.44.14.63.28.19.13.35.31.47.5.12.2.2.42.23.65.03.23.02.46-.04.69l-2.46 8.42 8.65-5.81c.27-.17.5-.41.66-.7a2.015 2.015 0 0 0 .06-1.87c-.14-.29-.35-.55-.62-.74l-6.21-4.72c-.19-.14-.34-.31-.46-.51a1.657 1.657 0 0 1-.14-1.33c.07-.22.18-.42.34-.59a1.938 1.938 0 0 1 2.6-.25l6.21 4.73c.7.51 1.26 1.18 1.64 1.96.38.78.56 1.63.53 2.5-.03.86-.27 1.71-.69 2.46-.43.75-1.03 1.39-1.76 1.85l-11.56 7.77c-.41.27-.9.42-1.39.42-.5 0-.98-.14-1.4-.4Zm-6.81-3.79-6.21-4.73c-.7-.51-1.26-1.18-1.64-1.96-.37-.78-.56-1.64-.53-2.5.03-.86.27-1.71.69-2.46.43-.75 1.03-1.39 1.76-1.85l11.57-7.76c.41-.27.9-.42 1.39-.42.5 0 .98.14 1.4.4.4.25.71.62.88 1.06.17.44.19.93.07 1.38l-3.4 11.66c-.15.45-.47.83-.89 1.06-.42.23-.91.28-1.37.16-.23-.05-.44-.14-.63-.28-.19-.13-.35-.31-.47-.5-.12-.2-.2-.42-.23-.65-.03-.23-.02-.46.04-.69l2.46-8.42-8.65 5.8c-.27.18-.5.42-.66.7-.16.28-.25.6-.26.93 0 .32.06.65.2.94.14.29.35.55.62.74l6.2 4.72c.19.13.34.31.46.51s.19.42.21.65c.02.23 0 .46-.07.68-.07.22-.18.42-.34.59-.18.2-.4.36-.65.47-.25.11-.51.17-.78.16-.42 0-.83-.13-1.16-.39Z" style="fill:url(#a)"/></g></svg>